HIERARCHY
ROOT Hips
{
	OFFSET 0.000000 0.000000 0.000000
	CHANNELS 6 Xposition Yposition Zposition Zrotation Yrotation Xrotation 
	JOINT Spine1
	{
		OFFSET -0.013727 5.003763 -0.053727
		CHANNELS 3 Zrotation Yrotation Xrotation
		JOINT Spine2
		{
			OFFSET -0.000000 7.125301 -0.029825
			CHANNELS 3 Zrotation Yrotation Xrotation
			JOINT Chest
			{
				OFFSET -0.000001 7.550064 -0.815971
				CHANNELS 3 Zrotation Yrotation Xrotation
				JOINT Neck1
				{
					OFFSET -0.181676 26.311296 -0.553348
					CHANNELS 3 Zrotation Yrotation Xrotation
					JOINT Neck2
					{
						OFFSET -0.000003 7.709399 2.302586
						CHANNELS 3 Zrotation Yrotation Xrotation
						JOINT Head
						{
							OFFSET -0.000005 6.128913 1.953709
							CHANNELS 3 Zrotation Yrotation Xrotation
							JOINT HeadEnd
							{
								OFFSET 0.003598 16.065401 -1.835380
								CHANNELS 3 Zrotation Yrotation Xrotation
								End Site
								{
									OFFSET 0.000000 0.000000 0.000000
								}
							}
							JOINT Jaw
							{
								OFFSET 0.002637 0.475591 3.094940
								CHANNELS 3 Zrotation Yrotation Xrotation
								End Site
								{
									OFFSET 0.000000 0.000000 0.000000
								}
							}
							JOINT LeftEye
							{
								OFFSET 3.206381 5.380207 7.586883
								CHANNELS 3 Zrotation Yrotation Xrotation
								End Site
								{
									OFFSET 0.000000 0.000000 0.000000
								}
							}
							JOINT RightEye
							{
								OFFSET -3.222440 5.361867 7.558232
								CHANNELS 3 Zrotation Yrotation Xrotation
								End Site
								{
									OFFSET 0.000000 0.000000 0.000000
								}
							}
						}
					}
				}
				JOINT LeftShoulder
				{
					OFFSET 1.621652 23.237164 5.113413
					CHANNELS 3 Zrotation Yrotation Xrotation
					JOINT LeftArm
					{
						OFFSET 14.919845 0.000000 -5.502326
						CHANNELS 3 Zrotation Yrotation Xrotation
						JOINT LeftForeArm
						{
							OFFSET 28.739309 0.000002 -0.002588
							CHANNELS 3 Zrotation Yrotation Xrotation
							JOINT LeftHand
							{
								OFFSET 27.093979 -0.000003 0.002609
								CHANNELS 3 Zrotation Yrotation Xrotation
								JOINT LeftHandThumb1
								{
									OFFSET 2.276481 -1.392045 3.191413
									CHANNELS 3 Zrotation Yrotation Xrotation
									JOINT LeftHandThumb2
									{
										OFFSET 4.012841 -1.828126 1.641655
										CHANNELS 3 Zrotation Yrotation Xrotation
										JOINT LeftHandThumb3
										{
											OFFSET 2.798516 0.000001 -0.000004
											CHANNELS 3 Zrotation Yrotation Xrotation
											JOINT LeftHandThumbEnd
											{
												OFFSET 3.180791 -0.000001 0.000003
												CHANNELS 3 Zrotation Yrotation Xrotation
												End Site
												{
													OFFSET 0.000000 0.000000 0.000000
												}
											}
										}
									}
								}
								JOINT LeftHandIndex1
								{
									OFFSET 3.247553 -0.531998 2.296169
									CHANNELS 3 Zrotation Yrotation Xrotation
									JOINT LeftHandIndex2
									{
										OFFSET 6.364579 0.012062 0.178600
										CHANNELS 3 Zrotation Yrotation Xrotation
										JOINT LeftHandIndex3
										{
											OFFSET 3.662366 0.000001 0.000000
											CHANNELS 3 Zrotation Yrotation Xrotation
											JOINT LeftHandIndex4
											{
												OFFSET 2.329243 0.000003 0.000004
												CHANNELS 3 Zrotation Yrotation Xrotation
												JOINT LeftHandIndexEnd
												{
													OFFSET 2.759619 -0.180539 -0.113024
													CHANNELS 3 Zrotation Yrotation Xrotation
													End Site
													{
														OFFSET 0.000000 0.000000 0.000000
													}
												}
											}
										}
									}
								}
								JOINT LeftHandMiddle1
								{
									OFFSET 3.163499 0.240982 1.000332
									CHANNELS 3 Zrotation Yrotation Xrotation
									JOINT LeftHandMiddle2
									{
										OFFSET 6.190778 -0.259276 -1.002548
										CHANNELS 3 Zrotation Yrotation Xrotation
										JOINT LeftHandMiddle3
										{
											OFFSET 4.356523 -0.000006 0.000000
											CHANNELS 3 Zrotation Yrotation Xrotation
											JOINT LeftHandMiddle4
											{
												OFFSET 2.996875 -0.000006 0.000001
												CHANNELS 3 Zrotation Yrotation Xrotation
												JOINT LeftHandMiddleEnd
												{
													OFFSET 2.304294 -0.294571 -0.031739
													CHANNELS 3 Zrotation Yrotation Xrotation
													End Site
													{
														OFFSET 0.000000 0.000000 0.000000
													}
												}
											}
										}
									}
								}
								JOINT LeftHandRing1
								{
									OFFSET 2.882642 -0.053650 -0.322543
									CHANNELS 3 Zrotation Yrotation Xrotation
									JOINT LeftHandRing2
									{
										OFFSET 5.854543 -0.486203 -1.373841
										CHANNELS 3 Zrotation Yrotation Xrotation
										JOINT LeftHandRing3
										{
											OFFSET 4.350580 0.000001 0.000004
											CHANNELS 3 Zrotation Yrotation Xrotation
											JOINT LeftHandRing4
											{
												OFFSET 2.651324 0.000008 0.000003
												CHANNELS 3 Zrotation Yrotation Xrotation
												JOINT LeftHandRingEnd
												{
													OFFSET 1.936111 0.077685 -0.000070
													CHANNELS 3 Zrotation Yrotation Xrotation
													End Site
													{
														OFFSET 0.000000 0.000000 0.000000
													}
												}
											}
										}
									}
								}
								JOINT LeftHandPinky1
								{
									OFFSET 2.865499 -0.310004 -1.600378
									CHANNELS 3 Zrotation Yrotation Xrotation
									JOINT LeftHandPinky2
									{
										OFFSET 5.087853 -1.331141 -1.771231
										CHANNELS 3 Zrotation Yrotation Xrotation
										JOINT LeftHandPinky3
										{
											OFFSET 3.070975 0.000003 0.000001
											CHANNELS 3 Zrotation Yrotation Xrotation
											JOINT LeftHandPinky4
											{
												OFFSET 1.549668 0.000000 0.000001
												CHANNELS 3 Zrotation Yrotation Xrotation
												JOINT LeftHandPinkyEnd
												{
													OFFSET 1.944895 -0.157801 0.057219
													CHANNELS 3 Zrotation Yrotation Xrotation
													End Site
													{
														OFFSET 0.000000 0.000000 0.000000
													}
												}
											}
										}
									}
								}
							}
						}
					}
				}
				JOINT RightShoulder
				{
					OFFSET -1.380118 23.180307 5.214158
					CHANNELS 3 Zrotation Yrotation Xrotation
					JOINT RightArm
					{
						OFFSET -15.037197 0.000012 -5.545604
						CHANNELS 3 Zrotation Yrotation Xrotation
						JOINT RightForeArm
						{
							OFFSET -28.736639 0.000003 -0.002597
							CHANNELS 3 Zrotation Yrotation Xrotation
							JOINT RightHand
							{
								OFFSET -27.133617 0.000000 0.002613
								CHANNELS 3 Zrotation Yrotation Xrotation
								JOINT RightHandThumb1
								{
									OFFSET -2.274037 -1.383990 3.163127
									CHANNELS 3 Zrotation Yrotation Xrotation
									JOINT RightHandThumb2
									{
										OFFSET -4.011429 -1.827468 1.640914
										CHANNELS 3 Zrotation Yrotation Xrotation
										JOINT RightHandThumb3
										{
											OFFSET -2.794934 -0.000003 -0.000003
											CHANNELS 3 Zrotation Yrotation Xrotation
											JOINT RightHandThumbEnd
											{
												OFFSET -3.183854 0.000003 0.000000
												CHANNELS 3 Zrotation Yrotation Xrotation
												End Site
												{
													OFFSET 0.000000 0.000000 0.000000
												}
											}
										}
									}
								}
								JOINT RightHandIndex1
								{
									OFFSET -3.253269 -0.520060 2.282866
									CHANNELS 3 Zrotation Yrotation Xrotation
									JOINT RightHandIndex2
									{
										OFFSET -6.341917 0.012473 0.178265
										CHANNELS 3 Zrotation Yrotation Xrotation
										JOINT RightHandIndex3
										{
											OFFSET -3.654875 -0.000009 -0.000001
											CHANNELS 3 Zrotation Yrotation Xrotation
											JOINT RightHandIndex4
											{
												OFFSET -2.327586 -0.000000 0.000000
												CHANNELS 3 Zrotation Yrotation Xrotation
												JOINT RightHandIndexEnd
												{
													OFFSET -2.761789 -0.180657 -0.113078
													CHANNELS 3 Zrotation Yrotation Xrotation
													End Site
													{
														OFFSET 0.000000 0.000000 0.000000
													}
												}
											}
										}
									}
								}
								JOINT RightHandMiddle1
								{
									OFFSET -3.168106 0.246594 1.001030
									CHANNELS 3 Zrotation Yrotation Xrotation
									JOINT RightHandMiddle2
									{
										OFFSET -6.180830 -0.258836 -1.000896
										CHANNELS 3 Zrotation Yrotation Xrotation
										JOINT RightHandMiddle3
										{
											OFFSET -4.348906 -0.000000 -0.000001
											CHANNELS 3 Zrotation Yrotation Xrotation
											JOINT RightHandMiddle4
											{
												OFFSET -3.000242 -0.000004 -0.000002
												CHANNELS 3 Zrotation Yrotation Xrotation
												JOINT RightHandMiddleEnd
												{
													OFFSET -2.302518 -0.294371 -0.031706
													CHANNELS 3 Zrotation Yrotation Xrotation
													End Site
													{
														OFFSET 0.000000 0.000000 0.000000
													}
												}
											}
										}
									}
								}
								JOINT RightHandRing1
								{
									OFFSET -2.885694 -0.067952 -0.308859
									CHANNELS 3 Zrotation Yrotation Xrotation
									JOINT RightHandRing2
									{
										OFFSET -5.854196 -0.486132 -1.373732
										CHANNELS 3 Zrotation Yrotation Xrotation
										JOINT RightHandRing3
										{
											OFFSET -4.338814 -0.000003 -0.000001
											CHANNELS 3 Zrotation Yrotation Xrotation
											JOINT RightHandRing4
											{
												OFFSET -2.654905 -0.000004 0.000004
												CHANNELS 3 Zrotation Yrotation Xrotation
												JOINT RightHandRingEnd
												{
													OFFSET -1.933570 0.077524 -0.000052
													CHANNELS 3 Zrotation Yrotation Xrotation
													End Site
													{
														OFFSET 0.000000 0.000000 0.000000
													}
												}
											}
										}
									}
								}
								JOINT RightHandPinky1
								{
									OFFSET -2.866429 -0.342798 -1.584145
									CHANNELS 3 Zrotation Yrotation Xrotation
									JOINT RightHandPinky2
									{
										OFFSET -5.091370 -1.332054 -1.772385
										CHANNELS 3 Zrotation Yrotation Xrotation
										JOINT RightHandPinky3
										{
											OFFSET -3.062666 -0.000006 0.000000
											CHANNELS 3 Zrotation Yrotation Xrotation
											JOINT RightHandPinky4
											{
												OFFSET -1.546527 0.000005 -0.000003
												CHANNELS 3 Zrotation Yrotation Xrotation
												JOINT RightHandPinkyEnd
												{
													OFFSET -1.945122 -0.157722 0.057211
													CHANNELS 3 Zrotation Yrotation Xrotation
													End Site
													{
														OFFSET 0.000000 0.000000 0.000000
													}
												}
											}
										}
									}
								}
							}
						}
					}
				}
			}
		}
	}
	JOINT LeftLeg
	{
		OFFSET 10.043214 -8.434526 2.595655
		CHANNELS 3 Zrotation Yrotation Xrotation
		JOINT LeftShin
		{
			OFFSET -0.000001 -43.221752 -0.802913
			CHANNELS 3 Zrotation Yrotation Xrotation
			JOINT LeftFoot
			{
				OFFSET 0.000001 -42.155094 -3.481523
				CHANNELS 3 Zrotation Yrotation Xrotation
				JOINT LeftToeBase
				{
					OFFSET 0.000000 -5.059475 13.231529
					CHANNELS 3 Zrotation Yrotation Xrotation
					JOINT LeftToeEnd
					{
						OFFSET -0.009607 -1.647615 6.513017
						CHANNELS 3 Zrotation Yrotation Xrotation
						End Site
						{
							OFFSET 0.000000 0.000000 0.000000
						}
					}
				}
			}
		}
	}
	JOINT RightLeg
	{
		OFFSET -10.047277 -8.295260 2.620317
		CHANNELS 3 Zrotation Yrotation Xrotation
		JOINT RightShin
		{
			OFFSET 0.000001 -43.362209 -0.805556
			CHANNELS 3 Zrotation Yrotation Xrotation
			JOINT RightFoot
			{
				OFFSET 0.000002 -42.117393 -3.478398
				CHANNELS 3 Zrotation Yrotation Xrotation
				JOINT RightToeBase
				{
					OFFSET -0.000001 -5.079609 13.284196
					CHANNELS 3 Zrotation Yrotation Xrotation
					JOINT RightToeEnd
					{
						OFFSET 0.009532 -1.634383 6.460591
						CHANNELS 3 Zrotation Yrotation Xrotation
						End Site
						{
							OFFSET 0.000000 0.000000 0.000000
						}
					}
				}
			}
		}
	}
}
MOTION
Frames: 4
Frame Time: 0.033333
-5.376456 99.410728 3.026146 -2.038841 0.094406 3.148828 -0.199246 -0.050293 -0.911557 -0.419874 -0.488227 -4.885061 0.627638 -2.448235 7.935901 4.596974 1.209081 2.449241 -1.317505 -3.168586 -3.549089 0.971195 -4.915735 -15.869725 0.000077 -0.000023 0.000006 0.023536 0.083094 0.032860 0.659974 -3.677649 -10.409706 -0.624655 3.840167 -10.379119 -11.510472 -3.220674 14.379087 -63.569324 -12.773408 2.692319 0.033362 -25.279699 -0.179160 -1.064072 1.367514 -1.018296 -5.882100 9.861279 0.702591 -10.936858 -0.360575 7.156196 0.000000 8.774814 -0.000001 -16.339214 18.177572 5.817697 -1.844031 2.498502 -2.507275 -10.163589 4.678941 4.621105 -20.975994 -0.000004 0.000005 -21.226250 2.451693 -3.593993 0.000000 -0.000006 -0.000000 -1.362680 2.240797 -0.746324 -21.334887 0.584908 3.008322 -13.821193 -0.000003 0.000004 -23.887123 -0.249078 -0.839481 -60.469841 2.400838 -1.381204 -0.294024 1.679685 0.833255 -14.218190 0.093215 1.300579 -34.212002 -0.287563 0.967169 -20.033178 0.964535 1.212843 0.000002 -0.000001 -0.000000 -3.440386 0.788232 0.501654 -15.928167 -3.167306 2.999705 -6.338816 -0.000001 0.000002 -18.123411 3.648175 -4.905661 -0.000002 0.000001 -0.000001 7.059392 8.911122 11.414180 68.128883 0.619942 10.596089 0.289088 31.965864 0.044179 6.900121 7.558143 4.332247 2.243540 -5.255033 -3.180155 14.282875 -0.826592 6.952497 -0.000003 -12.690590 -0.000001 16.421915 -18.167862 2.453207 1.665664 -1.955920 -2.878296 4.727793 -4.170582 4.993918 11.020512 0.000003 -0.000001 12.109031 -3.735709 -2.866779 -0.000000 -0.000001 0.000001 1.291984 -1.928547 -1.498088 14.800113 0.567468 3.865603 14.242554 -1.341735 -6.660648 19.631939 0.143926 -0.648242 50.724983 -0.410731 -6.174222 0.353028 -1.511148 -0.031941 20.222767 3.684308 2.316628 18.787245 0.000005 0.000001 10.751610 -0.479866 1.397905 0.000002 -0.000000 0.000003 3.273805 0.305947 -0.580110 21.486788 11.830363 2.266133 8.162915 0.000002 0.000002 18.399055 -3.798978 -4.940568 0.000005 0.000001 0.000000 7.580476 5.452745 -13.727311 -0.086589 -0.338623 18.845152 -9.374272 8.303613 -8.225388 1.643577 -1.889101 -0.675732 -0.000000 0.000000 0.000002 -5.341912 -9.091677 -4.224133 0.064845 0.359159 8.796176 12.227811 -9.340066 -6.156805 -1.426275 1.109668 -0.789884 -0.000000 0.000001 -0.000001 
-5.414109 99.531212 2.869426 -2.271904 0.014883 3.387544 -0.104198 -0.031571 -0.849822 -0.397564 -0.451214 -4.869104 0.647229 -2.434593 7.781471 4.790816 1.043103 2.151664 -1.396140 -3.239266 -3.532173 0.965724 -5.089877 -15.991070 0.000077 -0.000022 0.000006 0.025596 0.064620 0.032607 0.662111 -3.698658 -10.426237 -0.623162 3.830560 -10.401929 -11.252954 -3.186120 14.434947 -63.889996 -12.550776 3.271772 0.202551 -26.018642 -0.211943 -1.758776 1.802850 0.024567 -5.882102 9.861278 0.702588 -10.936859 -0.360574 7.156197 0.000001 8.774812 0.000000 -16.319305 18.136801 5.884618 -1.844031 2.498501 -2.507277 -10.163590 4.678939 4.621104 -20.975994 -0.000005 0.000002 -21.226254 2.451692 -3.593994 -0.000000 -0.000006 0.000001 -1.362680 2.240796 -0.746324 -21.334892 0.584908 3.008320 -13.821197 -0.000002 0.000002 -23.887133 -0.249079 -0.839481 -60.499947 2.435908 -1.305648 -0.294025 1.679686 0.833255 -14.218194 0.093214 1.300578 -34.212006 -0.287564 0.967168 -20.033175 0.964536 1.212844 0.000000 -0.000000 -0.000001 -3.440386 0.788232 0.501655 -15.928169 -3.167307 2.999703 -6.338818 -0.000002 0.000000 -18.123411 3.648175 -4.905661 -0.000003 0.000001 -0.000002 6.521068 8.931249 11.341275 68.418068 0.103591 10.911279 0.160998 32.124420 0.016941 6.983420 7.347507 4.452919 2.243540 -5.255033 -3.180156 14.282875 -0.826595 6.952496 -0.000002 -12.690590 -0.000001 16.429247 -18.072826 2.433534 1.665664 -1.955919 -2.878299 4.727794 -4.170583 4.993917 11.020511 0.000003 0.000000 12.109033 -3.735711 -2.866778 -0.000001 -0.000001 0.000001 1.291984 -1.928547 -1.498086 14.800114 0.567467 3.865604 14.242553 -1.341735 -6.660648 19.631939 0.143926 -0.648242 50.490368 -0.380123 -6.102451 0.353028 -1.511149 -0.031938 20.222769 3.684304 2.316629 18.787245 0.000003 0.000000 10.751611 -0.479868 1.397903 0.000001 0.000001 0.000000 3.273805 0.305947 -0.580109 21.486790 11.830360 2.266130 8.162916 0.000003 0.000001 18.399057 -3.798979 -4.940566 0.000005 0.000001 -0.000001 7.823612 5.507970 -13.819238 -0.075937 -0.332746 18.325291 -9.103840 8.582132 -7.816009 1.636806 -1.908064 -0.822473 0.000000 -0.000000 0.000002 -4.994873 -8.904158 -4.391416 0.054916 0.321904 8.321976 12.092369 -9.612296 -5.436259 -1.429257 1.062819 -0.851084 -0.000000 -0.000000 -0.000001 
-5.255738 99.564682 2.569587 -2.532732 -0.061825 3.589935 -0.004096 -0.009065 -0.811637 -0.381492 -0.465983 -4.859389 0.682041 -2.410535 7.723954 4.986428 0.924796 1.898604 -1.505863 -3.335796 -3.524195 1.024059 -5.259882 -15.945262 0.000077 -0.000022 0.000007 0.027214 0.046898 0.050123 0.658502 -3.737987 -10.452500 -0.617049 3.823805 -10.431348 -11.187117 -3.129419 14.459497 -63.852390 -12.297650 4.060650 0.293420 -27.149094 -0.251552 -2.312344 2.012223 1.091110 -5.882101 9.861279 0.702590 -10.936858 -0.360574 7.156196 -0.000000 8.774815 -0.000003 -16.294790 18.181065 5.960445 -1.844031 2.498502 -2.507275 -10.163589 4.678941 4.621103 -20.975994 -0.000001 0.000004 -21.226255 2.451695 -3.593995 0.000000 -0.000006 -0.000001 -1.362681 2.240796 -0.746320 -21.334887 0.584911 3.008320 -13.821193 -0.000001 0.000002 -23.887121 -0.249075 -0.839483 -60.454109 2.498224 -1.234732 -0.294025 1.679687 0.833256 -14.218192 0.093217 1.300578 -34.211998 -0.287560 0.967169 -20.033176 0.964537 1.212840 0.000000 -0.000000 -0.000001 -3.440385 0.788232 0.501656 -15.928165 -3.167306 2.999703 -6.338817 0.000000 0.000002 -18.123413 3.648178 -4.905661 -0.000003 0.000000 -0.000003 6.266788 8.880020 11.254003 68.367249 -0.435829 11.274962 0.013781 32.242516 -0.015386 7.158261 7.335042 4.269673 2.243540 -5.255034 -3.180153 14.282877 -0.826594 6.952495 -0.000001 -12.690592 -0.000001 16.402523 -17.976902 2.434834 1.665666 -1.955920 -2.878296 4.727794 -4.170583 4.993917 11.020511 0.000002 -0.000001 12.109033 -3.735711 -2.866777 -0.000001 -0.000000 0.000001 1.291984 -1.928548 -1.498087 14.800111 0.567467 3.865602 14.242553 -1.341738 -6.660650 19.631939 0.143926 -0.648245 50.286861 -0.391155 -6.089241 0.353028 -1.511149 -0.031940 20.222769 3.684305 2.316628 18.787245 0.000005 -0.000000 10.751610 -0.479867 1.397902 -0.000001 0.000000 0.000001 3.273804 0.305947 -0.580111 21.486790 11.830361 2.266130 8.162915 0.000000 -0.000001 18.399054 -3.798979 -4.940568 0.000005 0.000000 -0.000002 7.960545 5.552443 -14.352295 -0.056274 -0.322031 18.581678 -8.785665 8.741560 -7.717432 1.634012 -1.947109 -0.907475 0.000000 -0.000000 0.000002 -4.743109 -8.651659 -4.682129 0.045925 0.279244 8.002181 12.036523 -9.734733 -4.928625 -1.431110 1.002867 -0.858369 0.000000 0.000000 -0.000001 
-4.978111 99.487206 2.224235 -2.737303 -0.259000 3.717663 0.054639 0.022163 -0.761577 -0.395052 -0.462893 -4.854455 0.680951 -2.406557 7.727173 5.147246 0.888940 1.736951 -1.578296 -3.432437 -3.543398 1.034274 -5.363361 -15.832668 0.000077 -0.000023 0.000006 0.028504 0.046726 0.067021 0.650571 -3.748553 -10.477987 -0.605757 3.826987 -10.464722 -11.299088 -3.034234 14.381202 -63.468437 -11.927402 4.884629 0.242260 -28.562029 -0.212627 -2.412840 1.965997 1.883910 -5.882101 9.861277 0.702590 -10.936860 -0.360575 7.156198 0.000002 8.774812 -0.000001 -16.263620 18.269196 6.043848 -1.844031 2.498502 -2.507275 -10.163591 4.678937 4.621102 -20.976000 -0.000006 0.000004 -21.226255 2.451692 -3.593992 0.000002 -0.000006 -0.000000 -1.362680 2.240795 -0.746322 -21.334896 0.584905 3.008321 -13.821198 -0.000003 0.000003 -23.887133 -0.249080 -0.839481 -60.473732 2.528286 -1.181447 -0.294025 1.679686 0.833255 -14.218197 0.093214 1.300580 -34.212013 -0.287567 0.967172 -20.033184 0.964534 1.212843 -0.000000 -0.000000 -0.000002 -3.440386 0.788233 0.501655 -15.928173 -3.167308 2.999703 -6.338820 -0.000001 0.000003 -18.123415 3.648175 -4.905661 -0.000003 0.000001 -0.000001 6.332449 8.745451 11.202950 67.994049 -0.704422 11.419758 -0.000909 32.064976 -0.075542 7.228379 7.369305 4.138789 2.243540 -5.255033 -3.180156 14.282877 -0.826593 6.952495 -0.000004 -12.690590 0.000000 16.353485 -17.913301 2.462269 1.665665 -1.955920 -2.878298 4.727794 -4.170583 4.993918 11.020512 0.000003 -0.000001 12.109034 -3.735710 -2.866778 0.000000 -0.000000 -0.000000 1.291984 -1.928546 -1.498088 14.800114 0.567468 3.865602 14.242554 -1.341732 -6.660648 19.631941 0.143928 -0.648243 50.225906 -0.421323 -6.076967 0.353029 -1.511150 -0.031941 20.222773 3.684308 2.316628 18.787249 0.000006 0.000000 10.751610 -0.479869 1.397904 -0.000001 0.000000 -0.000000 3.273805 0.305947 -0.580109 21.486797 11.830361 2.266131 8.162916 0.000002 -0.000001 18.399057 -3.798979 -4.940567 0.000004 0.000000 -0.000001 7.968699 5.660802 -15.164821 -0.048755 -0.316617 19.570566 -8.446209 8.793999 -7.991246 1.633003 -1.989658 -0.884803 0.000000 -0.000000 0.000002 -4.623891 -8.357238 -5.169861 0.034272 0.255819 8.093418 12.109227 -9.745221 -4.907684 -1.431758 0.983448 -0.778876 -0.000000 -0.000000 -0.000001 
